# xmcd
#
# Track frame offsets:
#	150
#	11875
#	26909
#	37459
#	49918
#	62031
#	75226
#	86103
#	96994
#	109407
#	119695
#	131045
#	141862
#	155622
#	167674
#	177634
#	192359
#	206522
#	215860
#	226981
#	238504
#	252475
#	265847
#	277511
#
# Disc length: 3869 seconds
#
# Revision: 0
# Processed by: cddbd v1.5.2PL0 Copyright (c) Steve Scherf et al.
# Submitted via: EasyCDDAExtractor 16.0.1.1
#
DISCID=700f1b18
DTITLE=Connie Smith - Sunshine And Rain and Connie's Country
DYEAR=1968
DGENRE=Country
TTITLE0=Natchilly Ain't No Good
TTITLE1=The Deepening Snow
TTITLE2=You Are Gone
TTITLE3=The Hurt Goes On
TTITLE4=To Chicago With Love
TTITLE5=Gentle On My Mind
TTITLE6=Only Mama That'll Walk The Line
TTITLE7=Heartbreak Avenue
TTITLE8=What Makes A Man Wander
TTITLE9=Sundown Of My Mind
TTITLE10=How Much Lonelier Can Lonely Be
TTITLE11=Just A Little Sunshine In The Rain
TTITLE12=Seattle
TTITLE13=Ribbon Of Darkness
TTITLE14=Gotta Lotta Blues To Lose
TTITLE15=Today I Started Loving You Again
TTITLE16=You
TTITLE17=I'll Love You Enough (For Both Of Us)
TTITLE18=Sound Of Different Drums
TTITLE19=Happy Street
TTITLE20=Blue Little Girl
TTITLE21=A Lonely Woman
TTITLE22=You Don't Have Very Far To Go
TTITLE23=Gathering Flowers For The Master's Bouquet
EXTD=
EXTT0=
EXTT1=
EXTT2=
EXTT3=
EXTT4=
EXTT5=
EXTT6=
EXTT7=
EXTT8=
EXTT9=
EXTT10=
EXTT11=
EXTT12=
EXTT13=
EXTT14=
EXTT15=
EXTT16=
EXTT17=
EXTT18=
EXTT19=
EXTT20=
EXTT21=
EXTT22=
EXTT23=
PLAYORDER=
